<svg xmlns="http://www.w3.org/2000/svg" width="300" height="300" viewBox="0 0 300 300" xmlns:xlink="http://www.w3.org/1999/xlink">
  <defs>
    <polygon id="a" points="195.376 .012 .018 .012 .018 230.507 195.376 230.507"/>
    <polygon id="c" points="195.376 .012 .018 .012 .018 230.507 195.376 230.507"/>
    <polygon id="e" points=".018 .012 .018 230.507 195.376 230.507 195.376 .012"/>
    <polygon id="g" points=".018 .259 .018 40.346 133.435 40.346 133.435 .259"/>
    <polygon id="i" points="177.235 .012 .201 .012 .201 67.999 177.235 67.999"/>
  </defs>
  <g fill="none" fill-rule="evenodd">
    <polyline fill="#000000" fill-opacity=".15" fill-rule="nonzero" points="7.645 .355 0 .355 0 2.755 5.245 2.755 5.245 13.245 0 13.245 0 15.645 7.645 15.645 7.645 .355" transform="translate(0 142)"/>
    <path fill="#000000" fill-opacity=".15" fill-rule="nonzero" d="M0.7042,16.2355 L0.7042,0.946 L15.9934,0.946 L15.9934,16.2355 L0.7042,16.2355 Z M3.1042,13.8355 L13.5934,13.8355 L13.5934,3.346 L3.1042,3.346 L3.1042,13.8355 Z" transform="translate(77 245)"/>
    <path fill="#000000" fill-opacity=".15" fill-rule="nonzero" d="M0.52815,12.176625 L0.52815,0.7095 L11.99505,0.7095 L11.99505,12.176625 L0.52815,12.176625 Z M2.32815,10.376625 L10.19505,10.376625 L10.19505,2.5095 L2.32815,2.5095 L2.32815,10.376625 Z" transform="translate(31 35)"/>
    <polygon fill="#000000" fill-opacity=".15" fill-rule="nonzero" points="15.328 0 12.928 0 12.928 5.245 2.439 5.245 2.439 0 .039 0 .039 7.645 15.328 7.645" transform="translate(253)"/>
    <path fill="#000000" fill-opacity=".15" fill-rule="nonzero" d="M63.8013,122.3823 C60.0966,122.3823 57.0828,119.3685 57.0828,115.6638 C57.0828,111.9594 60.0966,108.9453 63.8013,108.9453 C67.506,108.9453 70.5198,111.9594 70.5198,115.6638 C70.5198,119.3685 67.506,122.3823 63.8013,122.3823 Z M63.8013,106.5453 C58.7733,106.5453 54.6828,110.6361 54.6828,115.6638 C54.6828,120.6918 58.7733,124.7823 63.8013,124.7823 C68.8293,124.7823 72.9198,120.6918 72.9198,115.6638 C72.9198,110.6361 68.8293,106.5453 63.8013,106.5453 L63.8013,106.5453 Z M233.3583,178.3944 C229.6542,178.3944 226.6401,175.3806 226.6401,171.6759 C226.6401,167.9712 229.6542,164.9571 233.3583,164.9571 C237.0633,164.9571 240.0771,167.9712 240.0771,171.6759 C240.0771,175.3806 237.0633,178.3944 233.3583,178.3944 Z M233.3583,162.5571 C228.3306,162.5571 224.2401,166.6479 224.2401,171.6759 C224.2401,176.7039 228.3306,180.7944 233.3583,180.7944 C238.3863,180.7944 242.4771,176.7039 242.4771,171.6759 C242.4771,166.6479 238.3863,162.5571 233.3583,162.5571 L233.3583,162.5571 Z"/>
    <mask id="b" fill="white">
      <use xlink:href="#a"/>
    </mask>
    <path fill="#000000" fill-opacity=".15" fill-rule="nonzero" d="M173.6649,85.0917 C169.9602,85.0917 166.9464,82.0776 166.9464,78.3732 C166.9464,74.6685 169.9602,71.6547 173.6649,71.6547 C177.3693,71.6547 180.3831,74.6685 180.3831,78.3732 C180.3831,82.0776 177.3693,85.0917 173.6649,85.0917 Z M173.6649,69.2547 C168.6369,69.2547 164.5464,73.3452 164.5464,78.3732 C164.5464,83.4009 168.6369,87.4917 173.6649,87.4917 C178.6929,87.4917 182.7831,83.4009 182.7831,78.3732 C182.7831,73.3452 178.6929,69.2547 173.6649,69.2547 L173.6649,69.2547 Z" mask="url(#b)"/>
    <mask id="d" fill="white">
      <use xlink:href="#c"/>
    </mask>
    <polyline fill="#000000" fill-opacity=".15" fill-rule="nonzero" points="179.077 5.687 179.554 19.671 165.741 19.223 166.188 33.237 152.405 32.79 152.492 48.422 154.892 48.409 154.819 35.269 168.668 35.719 168.221 21.704 182.04 22.153 181.563 8.169 195.376 8.618 195.101 0 192.7 0 192.895 6.136 179.077 5.687" mask="url(#d)"/>
    <mask id="f" fill="white">
      <use xlink:href="#e"/>
    </mask>
    <polyline fill="#000000" fill-opacity=".15" fill-rule="nonzero" points="14.918 219.697 24.061 230.069 33.919 220.139 43.057 230.507 52.993 220.542 62.066 230.041 63.801 228.383 53.03 217.106 43.165 227 34.023 216.628 24.165 226.557 15.026 216.19 5.125 226.119 0 220.304 0 223.934 5.017 229.625 14.918 219.697" mask="url(#f)"/>
    <path fill="#000000" fill-opacity=".15" fill-rule="nonzero" d="M259.2312,95.8668 C257.3493,94.2504 255.2172,92.4177 252.6153,93.8907 C249.861,95.4507 250.143,98.7507 250.3923,101.6625 C250.6539,104.724 250.7049,106.644 249.2076,107.4921 C247.7919,108.2937 246.3267,107.2746 244.0824,105.4992 C241.8594,103.7403 239.0925,101.5503 236.043,103.2777 C233.0043,104.9991 233.3814,108.5397 233.6847,111.3849 C233.9913,114.2601 234.0759,116.0631 232.6728,116.8578 C231.1764,117.705 229.452,116.5875 226.992,114.7842 C224.6907,113.0973 222.0831,111.1851 219.5079,112.6434 C216.9156,114.1119 217.0806,117.4971 217.2264,120.4839 C217.3512,123.0477 217.4691,125.4693 216.1002,126.2448 C214.9467,126.8985 213.5343,125.937 211.3452,124.2774 C208.9878,122.49 206.0547,120.2649 202.9347,122.031 C200.0235,123.6798 200.4345,126.7407 200.7969,129.4413 C201.2217,132.6051 201.318,134.6181 199.0734,135.8892 L200.2563,137.9775 C204.0744,135.8148 203.5761,132.1038 203.1759,129.1218 C202.788,126.234 202.7601,124.8882 204.1179,124.119 C205.743,123.198 207.3852,124.2867 209.8953,126.1899 C212.1342,127.8876 214.6719,129.8124 217.2831,128.3331 C219.9384,126.8292 219.771,123.396 219.6234,120.3672 C219.5007,117.8496 219.3846,115.4715 220.6911,114.7317 C221.8293,114.0864 223.3635,115.1001 225.5727,116.7198 C227.9445,118.4586 230.8965,120.6222 233.8557,118.9461 C236.7306,117.3177 236.3802,114.0306 236.0709,111.1305 C235.7517,108.132 235.6695,106.2474 237.2259,105.366 C238.7577,104.4975 240.2763,105.5478 242.5932,107.3814 C244.7643,109.0992 247.4661,111.2376 250.3908,109.5804 C253.335,107.9124 253.0422,104.4834 252.7833,101.4579 C252.5346,98.5473 252.4788,96.7263 253.7982,95.979 C254.8281,95.3952 255.723,96.0171 257.6676,97.6875 C259.968,99.6639 263.1183,102.3702 267.6432,99.8079 L266.4603,97.7196 C263.61,99.3339 261.828,98.097 259.2312,95.8668 M166.4631,193.1835 C164.0856,191.0529 162.7062,189.5841 163.5876,187.1601 L161.3322,186.3396 C159.8316,190.4637 162.6204,192.9624 164.8608,194.9706 C167.0307,196.9158 167.9244,197.922 167.3925,199.3875 C166.7535,201.1437 164.7978,201.3813 161.6535,201.5634 C158.8482,201.7257 155.6682,201.9099 154.6428,204.7293 C153.5997,207.5967 155.9556,210.0996 158.0343,212.3073 C159.7623,214.143 161.3931,215.877 160.8807,217.287 C160.4334,218.5176 158.6088,218.742 155.877,218.9445 C152.9439,219.1617 149.2941,219.432 148.1313,222.6282 C147.0021,225.7323 149.4027,228.0057 151.5204,230.0109 C153.7101,232.0842 154.9953,233.4645 154.3848,235.1451 C153.7821,236.8011 151.9458,236.9874 148.9935,237.0972 C146.2272,237.1998 142.7838,237.3279 141.6351,240.4866 C140.4783,243.6657 142.9275,246.084 145.0884,248.2179 C147.168,250.2702 148.3929,251.6202 147.8736,253.0443 C147.4689,254.1573 146.3844,254.2647 143.8212,254.2563 C140.7882,254.247 136.6338,254.2338 134.8566,259.1196 L137.112,259.9404 C138.2322,256.8615 140.391,256.6455 143.8137,256.6569 C146.2947,256.6644 149.1072,256.6734 150.129,253.8648 C151.2111,250.8897 148.854,248.5629 146.7747,246.5097 C144.5877,244.3509 143.3025,242.9238 143.8908,241.3068 C144.447,239.7768 146.2233,239.6019 149.0826,239.4954 C151.9158,239.3901 155.442,239.259 156.6402,235.9659 C157.8339,232.6824 155.2485,230.2353 153.1701,228.2682 C151.0704,226.2804 149.8353,224.9643 150.3867,223.4484 C150.975,221.8314 153.0126,221.5629 156.0543,221.3376 C158.8995,221.127 162.1248,220.8882 163.1364,218.1075 C164.1555,215.3079 161.832,212.8398 159.7818,210.6624 C158.022,208.7931 156.3606,207.0282 156.8982,205.5495 C157.3512,204.3045 159.0495,204.1182 161.7921,203.9589 C164.7462,203.7882 168.4227,203.5752 169.6476,200.2077 C170.7915,197.0628 168.492,195.0024 166.4631,193.1835"/>
    <g transform="translate(0 44.1)">
      <mask id="h" fill="white">
        <use xlink:href="#g"/>
      </mask>
      <path fill="#000000" fill-opacity=".15" fill-rule="nonzero" d="M120.9237,23.8788 C118.7949,25.8978 117.3933,27.0792 115.8693,26.4672 C114.4269,25.8882 114.3153,24.1881 114.3036,21.4563 C114.2922,18.7497 114.2775,15.3813 111.1725,14.1348 C108.0774,12.8931 105.6615,15.2829 103.7193,17.2041 C101.7567,19.1454 100.4622,20.2824 99.0336,19.7091 C97.5093,19.0971 97.317,17.1444 97.1973,14.2356 C97.0854,11.5137 96.9582,8.4291 94.3368,7.3767 C91.6983,6.3165 89.2701,8.4564 87.1287,10.3437 C85.2894,11.9643 83.5536,13.494 82.1598,12.9348 C80.9859,12.4635 80.8608,10.8372 80.7954,8.2155 C80.7249,5.3919 80.637,1.8771 77.4624,0.603 C74.4975,-0.5871 72.4596,1.5423 70.6605,3.4209 C68.5533,5.6226 67.1085,6.8931 64.8231,5.9757 L63.9696,8.1018 C67.8576,9.663 70.329,7.0803 72.3156,5.0055 C74.2395,2.9964 75.2274,2.1753 76.6089,2.7288 C78.2652,3.3939 78.4302,5.2668 78.5052,8.2728 C78.5721,10.9545 78.648,13.9944 81.306,15.0615 C84.0093,16.1463 86.4714,13.9767 88.6434,12.0627 C90.4488,10.4715 92.154,8.9703 93.4833,9.5028 C94.6437,9.9684 94.8003,11.7162 94.908,14.3298 C95.0235,17.1345 95.1663,20.6253 98.1801,21.8352 C101.1066,23.01 103.3506,20.7909 105.3306,18.8334 C107.3772,16.8087 108.7347,15.6261 110.319,16.2612 C111.8799,16.8882 111.9999,18.6459 112.0125,21.4662 C112.0236,24.1089 112.038,27.3984 115.0158,28.5933 C118.0125,29.7972 120.3969,27.5358 122.5008,25.5411 C124.5246,23.6217 125.8506,22.4949 127.1931,23.0352 C128.2422,23.4564 128.3109,24.4944 128.2227,26.9397 C128.1186,29.8332 127.9755,33.7965 132.5814,35.6454 L133.4355,33.519 C130.5327,32.3538 130.3944,30.2874 130.5126,27.0219 C130.5975,24.6546 130.6944,21.9714 128.0463,20.9085 C125.2419,19.7826 122.9481,21.9591 120.9237,23.8788 M39.9075,39.1455 C39.9075,38.4828 39.3702,37.9455 38.7075,37.9455 L0,37.9455 L0,40.3455 L38.7075,40.3455 C39.3702,40.3455 39.9075,39.8082 39.9075,39.1455" mask="url(#h)"/>
    </g>
    <polyline fill="#000000" fill-opacity=".15" fill-rule="nonzero" points="294.755 155.245 294.755 144.755 300 144.755 300 142.355 292.355 142.355 292.355 157.645 300 157.645 300 155.245 294.755 155.245"/>
    <polyline fill="#000000" fill-opacity=".15" fill-rule="nonzero" points="296.006 215.774 284.68 226.549 286.335 228.288 295.855 219.231 300 223.934 300 220.304 296.006 215.774"/>
    <path fill="#000000" fill-opacity=".15" fill-rule="nonzero" d="M293.5554,82.0455 C292.8927,82.0455 292.3554,82.5828 292.3554,83.2455 C292.3554,83.9082 292.8927,84.4455 293.5554,84.4455 L300,84.4455 L300,82.0455 L293.5554,82.0455 M138.4731,110.7861 C138.0594,110.268 137.3046,110.1834 136.7868,110.5968 C136.2687,111.0102 136.1838,111.7653 136.5972,112.2831 L166.3365,149.5482 C166.5732,149.8452 166.9224,150 167.2752,150 C167.5374,150 167.8017,149.9145 168.0228,149.7375 C168.5409,149.3244 168.6258,148.569 168.2124,148.0512 L138.4731,110.7861 M68.4330409,175.996605 C81.3062707,165.271073 79.1953583,147.389102 79.0993232,146.632982 C79.011054,145.939862 78.3779586,145.44947 77.6843848,145.537245 C77.4545118,145.566022 77.247237,145.655105 77.0754002,145.786146 C76.7291331,146.051156 76.528453,146.487577 76.586504,146.951238 C76.608055,147.123262 78.603007,164.226426 66.8121168,174.050816 C60.675479,179.156383 52.8554736,180.140388 47.3728551,180.061548 C41.3386987,179.974828 36.7180576,178.625789 36.6727572,178.612564 C36.0025216,178.412766 35.2980606,178.79453 35.0979744,179.464849 C34.8985476,180.13529 35.2803949,180.840039 35.9505478,181.039549 C36.7458853,181.276191 55.5795014,186.714618 68.4330409,175.996605"/>
    <g transform="translate(66)">
      <mask id="j" fill="white">
        <use xlink:href="#i"/>
      </mask>
      <path fill="#000000" fill-opacity=".15" fill-rule="nonzero" d="M176.913,65.3097 C176.6313,65.0076 176.2005,64.8591 175.7688,64.9575 C175.6086,64.9941 159.6657,68.472 149.3001,58.2699 C143.9121,52.9596 142.2543,45.6765 141.8169,40.4988 C141.3351,34.8003 142.176,30.3171 142.1841,30.273 C142.3098,29.6226 141.8841,28.9938 141.2331,28.8675 C140.5827,28.7421 139.9536,29.1681 139.8279,29.8185 C139.6791,30.5907 136.3086,48.8595 147.6168,59.9799 C158.9331,71.1189 175.5996,67.4586 176.3037,67.2972 C176.9493,67.1493 177.3522,66.5067 177.2049,65.8605 C177.1563,65.6466 177.0531,65.4594 176.913,65.3097 M43.722,0 L40.2348,0 C36.1788,3.7152 29.9556,7.7583 22.0635,7.7838 C14.4987,7.803 8.1951,3.7959 4.2402,0.4254 C4.0737,0.2835 3.9111,0.1419 3.7497,0 L0.2013,0 C4.8171,4.5846 12.4509,10.2186 22.0713,10.1835 C32.1414,10.1511 39.5496,4.3764 43.722,0" mask="url(#j)"/>
    </g>
    <path fill="#000000" fill-opacity=".15" fill-rule="nonzero" d="M234.5211,230.3724 C222.792,219.6693 206.2758,223.9563 205.5786,224.1444 C204.939,224.3169 204.5604,224.9739 204.7317,225.6138 C204.789,225.8259 204.8991,226.0092 205.0443,226.1538 C205.3377,226.4445 205.7736,226.5768 206.2014,226.4622 C206.3598,226.4196 222.1602,222.342 232.9038,232.1454 C238.4898,237.2439 240.42,244.4637 241.053,249.6207 C241.7496,255.2967 241.0791,259.8087 241.0722,259.8531 C240.9711,260.5083 241.4211,261.1209 242.0757,261.2214 C242.7306,261.3222 243.3432,260.8734 243.444,260.2182 C243.5637,259.4415 246.2427,241.0563 234.5211,230.3724" transform="rotate(161 224.24 242.188)"/>
    <g fill="#000000" fill-opacity=".15" fill-rule="nonzero" transform="translate(18.9)">
      <path d="M95.2572,157.6881 C94.6185,157.5126 93.9576,157.8876 93.7818,158.5269 L80.8077,205.6881 C80.6319,206.3271 81.0075,206.9874 81.6465,207.1632 C81.753,207.1926 81.8601,207.2064 81.9654,207.2064 C82.4922,207.2064 82.9755,206.8569 83.1219,206.3244 L96.096,159.1632 C96.2718,158.5242 95.8962,157.8639 95.2572,157.6881 M4.6197,7.5447 C4.7211,7.5006 4.8132,7.4445 4.8951,7.3779 C5.3052,7.0473 5.4615,6.4716 5.241,5.9652 L2.6433,0 L0.0252,0 L3.0405,6.924 C3.3051,7.5312 4.0122,7.8093 4.6197,7.5447"/>
    </g>
    <polyline fill="#000000" fill-opacity=".15" fill-rule="nonzero" points="253.039 292.355 253.039 300 255.439 300 255.439 294.755 265.928 294.755 265.928 300 268.328 300 268.328 292.355 253.039 292.355"/>
    <polyline fill="#000000" fill-opacity=".15" fill-rule="nonzero" points="208.062 294.454 208.044 292.055 192.451 292.171 192.7 300 195.101 300 194.928 294.553 208.062 294.454"/>
    <path fill="#000000" fill-opacity=".15" fill-rule="nonzero" d="M63.3051,292.902 C62.9361,292.3515 62.1912,292.2045 61.6401,292.5729 C61.0896,292.9419 60.942,293.6871 61.311,294.2376 C61.4829,294.4944 63.2076,297.0267 66.2013,300 L69.7497,300 C65.697,296.4324 63.3291,292.9377 63.3051,292.902 M113.2302,293.5377 C113.0448,293.4201 112.8396,293.3598 112.635,293.352 C112.2222,293.3358 111.8118,293.5335 111.5739,293.907 C111.5337,293.9703 109.6536,296.8689 106.2348,300 L109.722,300 C112.1286,297.4755 113.4594,295.416 113.6007,295.1928 C113.9553,294.6333 113.7891,293.8932 113.2302,293.5377 M3.0324,260.499 C2.4252,260.7636 2.1468,261.4704 2.4114,262.0782 L18.9252,300 L21.5433,300 L4.6119,261.1194 C4.3473,260.5122 3.6402,260.2341 3.0324,260.499 M253.0395,44.7003 C252.5997,44.7003 252.1761,44.4573 251.9658,44.0373 C251.6688,43.4448 251.9085,42.7239 252.5013,42.4269 L281.7627,27.7725 C282.3543,27.4764 283.0764,27.7155 283.3728,28.3083 C283.6695,28.9008 283.4301,29.6217 282.8373,29.9187 L253.5759,44.5731 C253.4037,44.6592 253.2201,44.7003 253.0395,44.7003"/>
  </g>
</svg>
